2.2Hzhigh3min_grf.mot
version=1
nRows=15
nColumns 19
inDegrees=yes
endheader
time	1_ground_force_vx	1_ground_force_vy	1_ground_force_vz	1_ground_force_px	1_ground_force_py	1_ground_force_pz	1_ground_torque_x	1_ground_torque_y	1_ground_torque_z	2_ground_force_vx	2_ground_force_vy	2_ground_force_vz	2_ground_force_px	2_ground_force_py	2_ground_force_pz	2_ground_torque_x	2_ground_torque_y	2_ground_torque_z
            3.751500	            7.654368	            5.229970	           -0.180008	           -0.233013	            0.005581	           -0.255695	            0.736819	           -1.002585	            0.019356	            0.333431	           -1.473341	            0.370029	           -0.232311	            0.006130	           -0.833667	           -0.187717	           -0.038489	           -0.000055
            3.752000	            6.967182	            3.967584	           -0.092001	           -0.233013	            0.005581	           -0.255695	            0.827547	           -0.965987	            0.008810	            0.378534	           -0.922736	            0.935117	           -0.232311	            0.006130	           -0.833667	           -0.168777	           -0.094734	           -0.113367
            3.752500	            6.508377	            4.148351	           -0.227658	           -0.233013	            0.005581	           -0.255695	            0.682744	           -0.706932	           -0.122062	            0.051372	           -1.109072	            1.216168	           -0.232311	            0.006130	           -0.833667	           -0.131335	           -0.047671	           -0.018963
            3.753000	            5.774599	            3.247667	           -0.413126	           -0.233013	            0.005581	           -0.255695	            0.578971	           -0.578856	            0.073078	           -0.182254	           -1.293732	            1.121755	           -0.232311	            0.006130	           -0.833667	           -0.225338	           -0.029038	           -0.037706
            3.753500	            5.223800	            3.248741	           -0.686896	           -0.233013	            0.005581	           -0.255695	            0.552855	           -0.514016	           -0.044026	           -0.322365	           -1.476547	            0.604948	           -0.232311	            0.006130	           -0.833667	           -0.093824	           -0.028697	           -0.000061
            3.754000	            4.445023	            2.707007	           -0.503857	           -0.233013	            0.005581	           -0.255695	            0.545529	           -0.496286	            0.016847	           -0.368132	           -1.843004	            0.040517	           -0.232311	            0.006130	           -0.833667	           -0.300394	           -0.057533	           -0.075475
            3.754500	            4.032502	            2.346396	           -0.504379	           -0.233013	            0.005581	           -0.255695	            0.526947	           -0.505723	           -0.000727	            0.003844	           -1.103718	           -0.332439	           -0.232311	            0.006130	           -0.833667	           -0.187488	           -0.095407	            0.056293
            3.755000	            3.803662	            2.165496	           -0.367015	           -0.233013	            0.005581	           -0.255695	            0.352149	           -0.607373	           -0.048092	            0.286314	           -1.471335	           -0.240017	           -0.232311	            0.006130	           -0.833667	           -0.243928	           -0.076571	            0.018684
            3.755500	            3.849085	            0.724559	           -0.648448	           -0.233013	            0.005581	           -0.255695	            0.346082	           -0.579714	           -0.027154	            0.052311	           -1.474189	            0.323220	           -0.232311	            0.006130	           -0.833667	           -0.262747	           -0.076369	           -0.056709
            3.756000	            4.216251	            0.904109	           -0.465162	           -0.233013	            0.005581	           -0.255695	            0.432308	           -0.487571	            0.101447	            0.191011	           -0.922408	            0.653628	           -0.232311	            0.006130	           -0.833667	           -0.168940	           -0.038354	           -0.018913
            3.756500	            4.536128	            0.905941	           -0.878661	           -0.233013	            0.005581	           -0.255695	            0.411773	           -0.403204	           -0.128833	           -0.233091	           -0.189011	            1.125717	           -0.232311	            0.006130	           -0.833667	           -0.075218	            0.018701	           -0.018751
            3.757000	            4.078123	           -0.176135	           -0.790450	           -0.233013	            0.005581	           -0.255695	            0.220967	           -0.357554	           -0.072480	           -0.324797	           -0.741794	            1.123786	           -0.232311	            0.006130	           -0.833667	           -0.075167	            0.009114	            0.018916
            3.757500	            3.390233	            0.544991	           -0.831507	           -0.233013	            0.005581	           -0.255695	            0.241291	           -0.321136	           -0.045326	           -0.604211	           -1.292744	            0.418013	           -0.232311	            0.006130	           -0.833667	           -0.075141	           -0.000271	            0.000032
            3.758000	            2.657248	            0.904398	           -0.598861	           -0.233013	            0.005581	           -0.255695	            0.118810	           -0.340379	            0.017597	           -0.416976	           -1.290728	            0.042508	           -0.232311	            0.006130	           -0.833667	           -0.225134	           -0.085754	           -0.037908
            3.758500	            2.061487	           -0.177311	           -0.602020	           -0.233013	            0.005581	           -0.255695	            0.081951	           -0.377714	            0.010954	           -0.601841	           -2.026994	           -0.241609	           -0.232311	            0.006130	           -0.833667	           -0.225057	           -0.104726	           -0.019125
